<svg xmlns="http://www.w3.org/2000/svg" viewBox="0 0 120 120" role="img" aria-labelledby="title">
  <title id="title">Hearthfire Logomark Placeholder</title>
  <defs>
    <radialGradient id="glow" cx="50%" cy="55%" r="60%">
      <stop offset="0%" stop-color="#D9A441" />
      <stop offset="60%" stop-color="#7A2E1F" />
      <stop offset="100%" stop-color="#0E0E0E" />
    </radialGradient>
  </defs>
  <rect width="120" height="120" rx="18" fill="#0E0E0E" />
  <circle cx="60" cy="60" r="45" fill="url(#glow)" opacity="0.9" />
  <path d="M60 25c10 15 22 25 22 40 0 12-9 21-22 23-13-2-22-11-22-23 0-15 12-25 22-40z" fill="#F3F1E9" opacity="0.8" />
  <path d="M60 92c-14-4-24-16-24-28a28 28 0 0 1 7-18c3 9 9 17 17 22 8-5 14-13 17-22a28 28 0 0 1 7 18c0 12-10 24-24 28z" fill="#7A2E1F" opacity="0.7" />
</svg>
